<svg width="25" height="30" viewBox="0 0 25 30" fill="none" xmlns="http://www.w3.org/2000/svg">
<g filter="url(#filter0_d_20_1064)">
<g clip-path="url(#clip0_20_1064)">
<path fill-rule="evenodd" clip-rule="evenodd" d="M5.46875 5.46875C5.46875 4.17603 6.51978 3.125 7.8125 3.125H13.6719V7.8125C13.6719 8.46069 14.1956 8.98438 14.8438 8.98438H19.5312V19.5312C19.5312 20.824 18.4802 21.875 17.1875 21.875H7.8125C6.51978 21.875 5.46875 20.824 5.46875 19.5312V5.46875ZM19.5312 7.8125H14.8438V3.125L19.5312 7.8125ZM15.4297 12.5H9.57031C9.24805 12.5 8.98438 12.7637 8.98438 13.0859C8.98438 13.4082 9.24805 13.6719 9.57031 13.6719H15.4297C15.752 13.6719 16.0156 13.4082 16.0156 13.0859C16.0156 12.7637 15.752 12.5 15.4297 12.5ZM15.4297 14.8438H9.57031C9.24805 14.8438 8.98438 15.1074 8.98438 15.4297C8.98438 15.752 9.24805 16.0156 9.57031 16.0156H15.4297C15.752 16.0156 16.0156 15.752 16.0156 15.4297C16.0156 15.1074 15.752 14.8438 15.4297 14.8438ZM15.4297 17.1875H9.57031C9.24805 17.1875 8.98438 17.4512 8.98438 17.7734C8.98438 18.0957 9.24805 18.3594 9.57031 18.3594H15.4297C15.752 18.3594 16.0156 18.0957 16.0156 17.7734C16.0156 17.4512 15.752 17.1875 15.4297 17.1875ZM9.57031 10.1814C9.24671 10.1814 8.98438 10.4438 8.98438 10.7674C8.98438 11.091 9.24671 11.3533 9.57031 11.3533L15.4297 11.3533C15.7533 11.3533 16.0156 11.091 16.0156 10.7674C16.0156 10.4438 15.7533 10.1814 15.4297 10.1814L9.57031 10.1814ZM8.98438 8.49686C8.98438 8.17325 9.24671 7.91092 9.57031 7.91092L12.6562 7.91092V9.08279L9.57031 9.08279C9.24671 9.08279 8.98438 8.82046 8.98438 8.49686ZM9.57031 5.56717C9.24671 5.56717 8.98438 5.8295 8.98438 6.15311C8.98438 6.47671 9.24671 6.73904 9.57031 6.73904L12.6562 6.73904V5.56717L9.57031 5.56717Z" fill="#787C84"/>
</g>
</g>
<defs>
<filter id="filter0_d_20_1064" x="-4" y="0" width="33" height="33" filterUnits="userSpaceOnUse" color-interpolation-filters="sRGB">
<feFlood flood-opacity="0" result="BackgroundImageFix"/>
<feColorMatrix in="SourceAlpha" type="matrix" values="0 0 0 0 0 0 0 0 0 0 0 0 0 0 0 0 0 0 127 0" result="hardAlpha"/>
<feOffset dy="4"/>
<feGaussianBlur stdDeviation="2"/>
<feComposite in2="hardAlpha" operator="out"/>
<feColorMatrix type="matrix" values="0 0 0 0 0 0 0 0 0 0 0 0 0 0 0 0 0 0 0.25 0"/>
<feBlend mode="normal" in2="BackgroundImageFix" result="effect1_dropShadow_20_1064"/>
<feBlend mode="normal" in="SourceGraphic" in2="effect1_dropShadow_20_1064" result="shape"/>
</filter>
<clipPath id="clip0_20_1064">
<rect width="14.0625" height="18.75" fill="white" transform="translate(5.46875 3.125)"/>
</clipPath>
</defs>
</svg>
