<svg width="25" height="25" viewBox="0 0 25 25" fill="none" xmlns="http://www.w3.org/2000/svg">
<g clip-path="url(#clip0_20_1060)">
<path d="M7.13425 10.4629C7.42798 9.63132 7.90482 8.84931 8.5762 8.18174C10.9604 5.79755 14.8247 5.79755 17.2089 8.18174L17.8612 8.83787H15.9424C15.2672 8.83787 14.7217 9.38337 14.7217 10.0586C14.7217 10.7338 15.2672 11.2793 15.9424 11.2793H20.8061H20.8214C21.4966 11.2793 22.0421 10.7338 22.0421 10.0586V5.17576C22.0421 4.50056 21.4966 3.95506 20.8214 3.95506C20.1462 3.95506 19.6007 4.50056 19.6007 5.17576V7.12888L18.9331 6.4575C15.5952 3.11964 10.186 3.11964 6.84814 6.4575C5.91736 7.38828 5.24597 8.4831 4.83398 9.65421C4.60892 10.2913 4.94461 10.9855 5.57785 11.2106C6.21109 11.4357 6.90918 11.1 7.13425 10.4667V10.4629ZM4.61273 13.7703C4.422 13.8275 4.23889 13.9305 4.09012 14.0831C3.93753 14.2357 3.83453 14.4188 3.78113 14.6171C3.76968 14.6629 3.75824 14.7125 3.75061 14.7621C3.73917 14.8269 3.73535 14.8918 3.73535 14.9566V19.8242C3.73535 20.4994 4.28085 21.0449 4.95605 21.0449C5.63126 21.0449 6.17676 20.4994 6.17676 19.8242V17.8749L6.84814 18.5425C10.186 21.8765 15.5952 21.8765 18.9293 18.5425C19.8601 17.6117 20.5353 16.5169 20.9473 15.3496C21.1723 14.7125 20.8366 14.0182 20.2034 13.7932C19.5702 13.5681 18.8721 13.9038 18.647 14.537C18.3533 15.3686 17.8764 16.1506 17.205 16.8182C14.8209 19.2024 10.9566 19.2024 8.57239 16.8182L8.56857 16.8144L7.91626 16.1621H9.83887C10.5141 16.1621 11.0596 15.6166 11.0596 14.9414C11.0596 14.2662 10.5141 13.7207 9.83887 13.7207H4.97131C4.91028 13.7207 4.84924 13.7245 4.78821 13.7321C4.72717 13.7398 4.66995 13.7512 4.61273 13.7703Z" fill="#787C84"/>
</g>
<defs>
<clipPath id="clip0_20_1060">
<rect width="19.5312" height="19.5312" fill="white" transform="translate(3.125 2.73438)"/>
</clipPath>
</defs>
</svg>
