<svg width="58" height="30" viewBox="0 0 58 30" fill="none" xmlns="http://www.w3.org/2000/svg">
<g clip-path="url(#clip0_20_1062)">
<path d="M7.8125 3.125C6.51978 3.125 5.46875 4.17603 5.46875 5.46875V19.5312C5.46875 20.824 6.51978 21.875 7.8125 21.875H17.1875C18.4802 21.875 19.5312 20.824 19.5312 19.5312V8.98438H14.8438C14.1956 8.98438 13.6719 8.46069 13.6719 7.8125V3.125H7.8125ZM14.8438 3.125V7.8125H19.5312L14.8438 3.125ZM9.57031 14.8438H15.4297C15.752 14.8438 16.0156 15.1074 16.0156 15.4297C16.0156 15.752 15.752 16.0156 15.4297 16.0156H9.57031C9.24805 16.0156 8.98438 15.752 8.98438 15.4297C8.98438 15.1074 9.24805 14.8438 9.57031 14.8438ZM9.57031 17.1875H15.4297C15.752 17.1875 16.0156 17.4512 16.0156 17.7734C16.0156 18.0957 15.752 18.3594 15.4297 18.3594H9.57031C9.24805 18.3594 8.98438 18.0957 8.98438 17.7734C8.98438 17.4512 9.24805 17.1875 9.57031 17.1875Z" fill="#787C84"/>
</g>
<g filter="url(#filter0_d_20_1062)">
<g clip-path="url(#clip1_20_1062)">
<path fill-rule="evenodd" clip-rule="evenodd" d="M38.4688 5.46875C38.4688 4.17603 39.5198 3.125 40.8125 3.125H46.6719V7.8125C46.6719 8.46069 47.1956 8.98438 47.8438 8.98438H52.5312V19.5312C52.5312 20.824 51.4802 21.875 50.1875 21.875H40.8125C39.5198 21.875 38.4688 20.824 38.4688 19.5312V5.46875ZM52.5312 7.8125H47.8438V3.125L52.5312 7.8125ZM48.4297 12.5H42.5703C42.248 12.5 41.9844 12.7637 41.9844 13.0859C41.9844 13.4082 42.248 13.6719 42.5703 13.6719H48.4297C48.752 13.6719 49.0156 13.4082 49.0156 13.0859C49.0156 12.7637 48.752 12.5 48.4297 12.5ZM48.4297 14.8438H42.5703C42.248 14.8438 41.9844 15.1074 41.9844 15.4297C41.9844 15.752 42.248 16.0156 42.5703 16.0156H48.4297C48.752 16.0156 49.0156 15.752 49.0156 15.4297C49.0156 15.1074 48.752 14.8438 48.4297 14.8438ZM48.4297 17.1875H42.5703C42.248 17.1875 41.9844 17.4512 41.9844 17.7734C41.9844 18.0957 42.248 18.3594 42.5703 18.3594H48.4297C48.752 18.3594 49.0156 18.0957 49.0156 17.7734C49.0156 17.4512 48.752 17.1875 48.4297 17.1875ZM42.5703 10.1814C42.2467 10.1814 41.9844 10.4438 41.9844 10.7674C41.9844 11.091 42.2467 11.3533 42.5703 11.3533L48.4297 11.3533C48.7533 11.3533 49.0156 11.091 49.0156 10.7674C49.0156 10.4438 48.7533 10.1814 48.4297 10.1814L42.5703 10.1814ZM41.9844 8.49686C41.9844 8.17325 42.2467 7.91092 42.5703 7.91092L45.6562 7.91092V9.08279L42.5703 9.08279C42.2467 9.08279 41.9844 8.82046 41.9844 8.49686ZM42.5703 5.56717C42.2467 5.56717 41.9844 5.8295 41.9844 6.15311C41.9844 6.47671 42.2467 6.73904 42.5703 6.73904L45.6562 6.73904V5.56717L42.5703 5.56717Z" fill="#787C84"/>
</g>
</g>
<defs>
<filter id="filter0_d_20_1062" x="29" y="0" width="33" height="33" filterUnits="userSpaceOnUse" color-interpolation-filters="sRGB">
<feFlood flood-opacity="0" result="BackgroundImageFix"/>
<feColorMatrix in="SourceAlpha" type="matrix" values="0 0 0 0 0 0 0 0 0 0 0 0 0 0 0 0 0 0 127 0" result="hardAlpha"/>
<feOffset dy="4"/>
<feGaussianBlur stdDeviation="2"/>
<feComposite in2="hardAlpha" operator="out"/>
<feColorMatrix type="matrix" values="0 0 0 0 0 0 0 0 0 0 0 0 0 0 0 0 0 0 0.25 0"/>
<feBlend mode="normal" in2="BackgroundImageFix" result="effect1_dropShadow_20_1062"/>
<feBlend mode="normal" in="SourceGraphic" in2="effect1_dropShadow_20_1062" result="shape"/>
</filter>
<clipPath id="clip0_20_1062">
<rect width="14.0625" height="18.75" fill="white" transform="translate(5.46875 3.125)"/>
</clipPath>
<clipPath id="clip1_20_1062">
<rect width="14.0625" height="18.75" fill="white" transform="translate(38.4688 3.125)"/>
</clipPath>
</defs>
</svg>
