<svg width="25" height="25" viewBox="0 0 25 25" fill="none" xmlns="http://www.w3.org/2000/svg">
<g clip-path="url(#clip0_20_1063)">
<path d="M7.8125 3.125C6.51978 3.125 5.46875 4.17603 5.46875 5.46875V19.5312C5.46875 20.824 6.51978 21.875 7.8125 21.875H17.1875C18.4802 21.875 19.5312 20.824 19.5312 19.5312V8.98438H14.8438C14.1956 8.98438 13.6719 8.46069 13.6719 7.8125V3.125H7.8125ZM14.8438 3.125V7.8125H19.5312L14.8438 3.125ZM9.57031 14.8438H15.4297C15.752 14.8438 16.0156 15.1074 16.0156 15.4297C16.0156 15.752 15.752 16.0156 15.4297 16.0156H9.57031C9.24805 16.0156 8.98438 15.752 8.98438 15.4297C8.98438 15.1074 9.24805 14.8438 9.57031 14.8438ZM9.57031 17.1875H15.4297C15.752 17.1875 16.0156 17.4512 16.0156 17.7734C16.0156 18.0957 15.752 18.3594 15.4297 18.3594H9.57031C9.24805 18.3594 8.98438 18.0957 8.98438 17.7734C8.98438 17.4512 9.24805 17.1875 9.57031 17.1875Z" fill="#787C84"/>
</g>
<defs>
<clipPath id="clip0_20_1063">
<rect width="14.0625" height="18.75" fill="white" transform="translate(5.46875 3.125)"/>
</clipPath>
</defs>
</svg>
