<svg width="25" height="25" viewBox="0 0 25 25" fill="none" xmlns="http://www.w3.org/2000/svg">
<g clip-path="url(#clip0_20_1061)">
<path d="M9.84746 10.2926L10.3676 10.2168L10.6 9.7454L12.8141 5.2563C12.8271 5.23002 12.838 5.2232 12.843 5.22028C12.8516 5.21519 12.8672 5.20952 12.8886 5.2096C12.9101 5.20967 12.9273 5.21554 12.938 5.22188C12.9452 5.22614 12.9559 5.23383 12.9676 5.25728C12.9677 5.25744 12.9677 5.2576 12.9678 5.25777L15.1811 9.7454L15.4136 10.2168L15.9337 10.2926L20.8877 11.0149L20.8885 11.015C20.9152 11.0188 20.925 11.0266 20.9301 11.0311C20.9384 11.0384 20.949 11.0522 20.9557 11.0728C20.9623 11.0934 20.9619 11.1108 20.9594 11.1217C20.9579 11.1285 20.9544 11.1409 20.9346 11.1602L20.9343 11.1605L17.3502 14.6531L16.9734 15.0202L17.0625 15.5386L17.9101 20.4716C17.9101 20.4716 17.9101 20.4717 17.9101 20.4717C17.915 20.5004 17.9101 20.5119 17.908 20.5168C17.9042 20.5257 17.8949 20.5394 17.8774 20.5521C17.8597 20.5648 17.8422 20.5701 17.8299 20.5713C17.8217 20.572 17.8096 20.572 17.7879 20.5606L17.7877 20.5605L13.3559 18.231L12.8906 17.9864L12.4253 18.231L7.99348 20.5605L7.99034 20.5622C7.96894 20.5735 7.95757 20.5733 7.95043 20.5726C7.93918 20.5716 7.92214 20.5666 7.90451 20.5539C7.88699 20.5412 7.87748 20.5273 7.87337 20.5178C7.87099 20.5123 7.86621 20.5004 7.87103 20.4719C7.87104 20.4718 7.87106 20.4717 7.87108 20.4716L8.71867 15.5386L8.80775 15.0202L8.43102 14.6531L4.8469 11.1605L4.84661 11.1602C4.82676 11.1409 4.82325 11.1285 4.82173 11.1217C4.81928 11.1108 4.81883 11.0934 4.82551 11.0728C4.83219 11.0522 4.8428 11.0384 4.85105 11.0311C4.85616 11.0266 4.86594 11.0188 4.89271 11.015L4.89344 11.0149L9.84746 10.2926Z" stroke="#787C84" stroke-width="2"/>
</g>
<defs>
<clipPath id="clip0_20_1061">
<rect width="19.5312" height="19.5312" fill="white" transform="translate(3.125 3.125)"/>
</clipPath>
</defs>
</svg>
