<svg width="25" height="25" viewBox="0 0 25 25" fill="none" xmlns="http://www.w3.org/2000/svg">
<g clip-path="url(#clip0_20_1069)">
<path d="M12.1094 10.144C13.6276 10.144 14.856 11.3724 14.856 12.8906C14.856 14.4089 13.6276 15.6372 12.1094 15.6372C10.5911 15.6372 9.36279 14.4089 9.36279 12.8906C9.36279 11.3724 10.5911 10.144 12.1094 10.144ZM9.36279 6.17676C9.36279 7.69501 10.5911 8.92334 12.1094 8.92334C13.6276 8.92334 14.856 7.69501 14.856 6.17676C14.856 4.65851 13.6276 3.43018 12.1094 3.43018C10.5911 3.43018 9.36279 4.65851 9.36279 6.17676ZM9.36279 19.6045C9.36279 21.1227 10.5911 22.3511 12.1094 22.3511C13.6276 22.3511 14.856 21.1227 14.856 19.6045C14.856 18.0862 13.6276 16.8579 12.1094 16.8579C10.5911 16.8579 9.36279 18.0862 9.36279 19.6045Z" fill="#787C84"/>
</g>
<defs>
<clipPath id="clip0_20_1069">
<rect width="19.5312" height="19.5312" fill="white" transform="translate(2.34375 3.125)"/>
</clipPath>
</defs>
</svg>
