<svg width="24" height="25" viewBox="0 0 24 25" fill="none" xmlns="http://www.w3.org/2000/svg">
<path d="M19.4294 10.0299C19.3368 10.0191 19.2436 10.0137 19.1503 10.0133H16.8055L17.1467 6.41752C17.1463 5.64354 16.8392 4.90127 16.2922 4.35349C15.7454 3.80587 15.0037 3.4974 14.2296 3.49576C13.533 3.48857 12.856 3.72754 12.3182 4.17029C11.7802 4.61322 11.4158 5.23168 11.2892 5.91685C11.221 6.42749 11.0863 6.92686 10.8882 7.40237C10.4789 8.34024 9.74748 9.65353 8.41785 10.0345C8.04901 10.0897 7.67591 10.113 7.30299 10.1036C6.42596 10.1036 5.42705 10.0345 5.42705 10.0345C4.80469 10.0369 4.20863 10.286 3.76964 10.7272C3.33048 11.1681 3.08414 11.7653 3.08447 12.3875V19.9007C3.08447 20.5226 3.33162 21.1191 3.77127 21.5588C4.2111 21.9986 4.80745 22.2456 5.42935 22.2456H18.2897C18.8684 22.2461 19.427 22.0338 19.8593 21.6493C20.2916 21.2647 20.5675 20.7346 20.6346 20.1598L21.494 12.6562C21.5707 12.0337 21.3958 11.4064 21.0082 10.9134C20.6205 10.4205 20.0523 10.1023 19.4293 10.03L19.4294 10.0299ZM7.4098 20.4972H5.42951C5.27527 20.4933 5.12838 20.4303 5.01928 20.3212C4.91019 20.2121 4.84721 20.0653 4.84329 19.911V12.3969C4.84656 12.2469 4.90561 12.1037 5.00914 11.9952C5.11268 11.8868 5.25302 11.8209 5.40252 11.8107C5.67093 11.8284 6.52458 11.8776 7.32067 11.8776H7.40867L7.4098 20.4972ZM19.7288 12.4614L18.8812 19.965C18.8642 20.1095 18.7953 20.2426 18.6875 20.3401C18.5797 20.4376 18.4402 20.4925 18.295 20.495H9.16377V11.6703C11.2741 10.9269 12.1992 8.8388 12.5087 8.133H12.5089C12.7688 7.51948 12.9477 6.87468 13.0411 6.21485C13.0965 5.93989 13.246 5.69273 13.4638 5.51578C13.6816 5.3388 13.9541 5.24328 14.2346 5.24524C14.5297 5.24901 14.8127 5.36399 15.0266 5.5673C15.2407 5.77045 15.3703 6.04687 15.3894 6.34145L15.0705 9.87756L14.8982 11.7909H19.1445C19.304 11.7955 19.455 11.8629 19.5647 11.9786C19.6747 12.094 19.7344 12.2483 19.7308 12.4076C19.7321 12.4252 19.7308 12.4427 19.7285 12.4616L19.7288 12.4614Z" fill="#787C84"/>
</svg>
