<svg width="24" height="25" viewBox="0 0 24 25" fill="none" xmlns="http://www.w3.org/2000/svg">
<g clip-path="url(#clip0_20_1068)">
<path d="M4.49371 15.7157C4.58629 15.7265 4.67952 15.7319 4.77276 15.7323L7.11763 15.7323L6.77644 19.3281C6.77676 20.1021 7.08394 20.8443 7.63089 21.3921C8.17771 21.9397 8.91944 22.2482 9.69346 22.2498C10.3901 22.257 11.0671 22.0181 11.6049 21.5753C12.1429 21.1324 12.5073 20.5139 12.6339 19.8288C12.7021 19.3181 12.8368 18.8187 13.0349 18.3432C13.4442 17.4054 14.1756 16.0921 15.5052 15.7112C15.8741 15.6559 16.2472 15.6326 16.6201 15.642C17.4971 15.642 18.496 15.7112 18.496 15.7112C19.1184 15.7087 19.7145 15.4596 20.1535 15.0185C20.5926 14.5775 20.839 13.9803 20.8386 13.3581L20.8386 5.84488C20.8386 5.22298 20.5915 4.62646 20.1518 4.1868C19.712 3.74697 19.1156 3.5 18.4937 3.5L5.63336 3.5C5.05467 3.49951 4.49609 3.71182 4.0638 4.09635C3.6315 4.48089 3.35556 5.01102 3.28848 5.58577L2.42912 13.0894C2.35241 13.7119 2.52726 14.3392 2.91493 14.8322C3.30258 15.3251 3.8708 15.6433 4.49383 15.7156L4.49371 15.7157ZM16.5133 5.24838L18.4936 5.24838C18.6478 5.2523 18.7947 5.31528 18.9038 5.42437C19.0129 5.53347 19.0759 5.68035 19.0798 5.8346L19.0798 13.3487C19.0765 13.4987 19.0175 13.6419 18.914 13.7504C18.8104 13.8588 18.6701 13.9248 18.5206 13.9349C18.2522 13.9172 17.3985 13.868 16.6024 13.868L16.5144 13.868L16.5133 5.24838ZM4.19432 13.2842L5.04191 5.78058C5.05892 5.63615 5.12778 5.50301 5.23557 5.40552C5.34336 5.30804 5.48288 5.25308 5.62813 5.25063L14.7593 5.25063L14.7593 14.0753C12.649 14.8187 11.7239 16.9068 11.4144 17.6126L11.4142 17.6126C11.1543 18.2261 10.9754 18.8709 10.882 19.5308C10.8265 19.8057 10.677 20.0529 10.4593 20.2298C10.2415 20.4068 9.96896 20.5023 9.68845 20.5004C9.39338 20.4966 9.1104 20.3816 8.89647 20.1783C8.68236 19.9752 8.55282 19.6987 8.53368 19.4042L8.85264 15.868L9.02487 13.9547L4.77855 13.9547C4.61907 13.9501 4.4681 13.8827 4.35836 13.7671C4.24844 13.6516 4.18874 13.4973 4.19234 13.338C4.19103 13.3204 4.19234 13.3029 4.19463 13.284L4.19432 13.2842Z" fill="#787C84"/>
</g>
<defs>
<clipPath id="clip0_20_1068">
<rect width="18.75" height="18.75" fill="white" transform="matrix(-1 0 0 1 21 3.5)"/>
</clipPath>
</defs>
</svg>
